<svg width="36" height="36" viewBox="0 0 25 36" fill="none" xmlns="http://www.w3.org/2000/svg">
<path fill-rule="evenodd" clip-rule="evenodd" d="M9.63113 35.0105H16.1867C24.6745 35.0105 24.753 34.5286 24.753 27.5305L24.753 17.2883C24.753 12.6327 22.3321 9.18757 16.1867 9.18757L1.14916 9.18757L1.14916 10.2126C1.14916 12.2948 2.83715 13.9828 4.91939 13.9828L16.1867 13.9828C18.8869 13.9828 19.9577 15.426 19.9577 17.3814V19.1505L9.67768 19.1505C3.87039 19.1505 1.05012 20.0776 0.174184 24.6845C-0.0578263 25.9047 -0.0453967 27.1658 0.13663 28.3945C0.876011 33.3853 3.15632 35.0105 9.63113 35.0105ZM19.9577 23.0146V26.8632C19.9577 29.3928 19.8181 30.2618 16.8075 30.2618L9.03913 30.2618C5.53646 30.2618 4.46256 29.1546 4.4695 26.886C4.46982 26.7825 4.47015 26.6767 4.47015 26.5684C4.47015 26.4181 4.46915 26.2728 4.46818 26.1325C4.45343 23.9984 5.8521 23.0146 9.50698 23.0146L19.9577 23.0146Z" fill="#303030"/>
</svg>
