<svg width="114" height="36" viewBox="0 0 114 36" fill="none" xmlns="http://www.w3.org/2000/svg">
<path fill-rule="evenodd" clip-rule="evenodd" d="M49.6288 4.75948C49.6288 2.67724 51.3168 0.989258 53.399 0.989258H54.6102V25.7104C54.6102 32.7869 53.3067 34.9905 47.4407 34.9905H38.7813C30.9754 34.9905 29.3615 31.9178 29.3615 21.4583C29.3615 11.3091 31.5961 9.16756 39.402 9.16756H49.6288V4.75948ZM44.7559 30.1953C48.7132 30.1953 49.6288 28.4261 49.6288 24.2361V13.9162H39.5572C35.3206 13.9162 34.3429 15.8406 34.3429 21.4583C34.3429 26.7656 35.3206 30.1953 39.5572 30.1953H44.7559ZM75.6845 9.16743H67.7235C61.5781 9.16743 59.1572 11.9918 59.1572 16.6474V26.8897C59.1572 31.5452 61.5781 34.9904 67.7235 34.9904H82.761V33.9653C82.761 31.8831 81.073 30.1951 78.9908 30.1951H67.7235C65.0232 30.1951 63.9525 28.7519 63.9525 26.7966V25.0274H75.638C82.6214 25.0274 83.9715 24.3291 83.9715 17.6406C83.9715 10.7193 82.4351 9.16743 75.6845 9.16743ZM63.9525 21.1633V17.3147C63.9525 14.7852 64.0921 13.9161 67.1027 13.9161H75.9484C79.451 13.9161 79.4476 15.0233 79.4407 17.292C79.4404 17.3954 79.44 17.5013 79.44 17.6096C79.44 17.7599 79.441 17.9051 79.442 18.0455C79.4568 20.1796 79.4636 21.1633 75.8087 21.1633H63.9525ZM101.616 9.16743H92.7085C90.241 9.16743 88.6426 11.34 88.6426 14.2265V34.9904H90.0973C92.0194 34.9904 93.5775 33.4322 93.5775 31.5102V15.5456C93.5775 14.1489 93.7637 13.9161 95.1139 13.9161H101.616C106.784 13.9161 109.019 16.0577 109.019 19.9218V31.5102C109.019 33.4322 110.577 34.9904 112.499 34.9904H114V19.9218C114 13.1247 109.95 9.16743 101.616 9.16743Z" fill="#303030"/>
<path fill-rule="evenodd" clip-rule="evenodd" d="M9.63113 35.0105H16.1867C24.6745 35.0105 24.753 34.5286 24.753 27.5305L24.753 17.2883C24.753 12.6327 22.3321 9.18757 16.1867 9.18757L1.14916 9.18757L1.14916 10.2126C1.14916 12.2948 2.83715 13.9828 4.91939 13.9828L16.1867 13.9828C18.8869 13.9828 19.9577 15.426 19.9577 17.3814V19.1505L9.67768 19.1505C3.87039 19.1505 1.05012 20.0776 0.174184 24.6845C-0.0578263 25.9047 -0.0453967 27.1658 0.13663 28.3945C0.876011 33.3853 3.15632 35.0105 9.63113 35.0105ZM19.9577 23.0146V26.8632C19.9577 29.3928 19.8181 30.2618 16.8075 30.2618L9.03913 30.2618C5.53646 30.2618 4.46256 29.1546 4.4695 26.886C4.46982 26.7825 4.47015 26.6767 4.47015 26.5684C4.47015 26.4181 4.46915 26.2728 4.46818 26.1325C4.45343 23.9984 5.8521 23.0146 9.50698 23.0146L19.9577 23.0146Z" fill="#303030"/>
</svg>
